<svg id="f10aac8d-f0d8-4390-8bd2-4c3f2096524c" data-name="Calque 1" xmlns="http://www.w3.org/2000/svg" width="1000" height="1206" viewBox="0 0 1000 1206"><title>Resin Code alt 2</title><path d="M880.7341,630.30843,822.96219,530.2458l-74.37944,42.94348,57.77191,100.06214c14.65023,25.37569,4.88018,47.97865-.001,56.43205C801.47351,738.13687,786.95886,758,757.6584,758H550V714.65332l-148.75889,85.886L550,886.42528V843H757.6584c51.377,0,97.38574-26.32251,123.07474-70.816C906.42213,727.68994,906.42213,674.80341,880.7341,630.30843Z"/><path d="M376.92487,184.03227,319.15314,284.09493l74.379,42.94323,57.77215-100.0629c14.65046-25.37508,38.93483-28.1153,48.69584-28.11456,9.76095-.00034,34.04576,2.73889,48.69647,28.11468L652.73233,407.17051l-37.34058,21.47162L764,514.52811v-171.772l-37.03887,21.47137L623.00075,184.03239c-25.689-44.49464-71.66129-71.0582-123.03825-71.05767C448.585,112.9744,402.6129,139.53818,376.92487,184.03227Z"/><path d="M242.34191,843H358V758H242.34191c-29.30069,0-43.81508-19.86326-48.69584-28.31632s-14.65044-30.95566-.00021-56.3306l104.10005-180.246L335,514.52829v-171.772l-148.823,85.886,37.15741,21.47134L119.28244,630.3092c-25.68851,44.4938-25.69667,97.37991-.0078,141.87448C144.96309,816.678,190.96446,843,242.34191,843Z"/><path d="M499.19824,638.82227c-29.98926,0-52.83691-18.80078-52.83691-52.36133,0-15.4707,6.66406-29.75,14.2793-45.2207l35.70117-73.30664h33.79687L494.91406,537.9082a33.52642,33.52642,0,0,1,12.61426-2.14258c22.84863,0,44.50684,18.80273,44.50684,50.2207C552.03516,619.30664,529.1875,638.82227,499.19824,638.82227Zm0-77.35156c-12.61426,0-21.89648,9.04492-21.89648,24.752,0,15.709,9.28223,24.75391,21.89648,24.75391s21.89648-9.04492,21.89648-24.75391C521.09473,571.22852,512.28906,561.4707,499.19824,561.4707Z"/><path d="M439.93945,1035.06836H407.332v63.78613H374.25V929.39355h65.68945c35.22461,0,55.93164,24.03906,55.93164,52.83789S475.16406,1035.06836,439.93945,1035.06836Zm-1.666-76.16211H407.332v46.41211h30.94141c14.99414,0,24.51465-9.2832,24.51465-23.08691C462.78809,968.42676,453.26758,958.90625,438.27344,958.90625Z"/><path d="M570.36133,1100.28223c-25.70508,0-45.22168-5.47363-61.88281-22.37207l21.42188-21.4209c10.709,10.71,25.22852,14.28027,40.69922,14.28027,19.75391,0,30.22656-7.61621,30.22656-21.18262,0-5.71191-1.666-10.47168-5.23633-14.042-3.332-3.09473-6.66406-4.52246-15.23242-5.71191l-20.23047-3.09473c-14.99414-2.1416-25.22852-6.66406-32.8457-14.042-8.0918-7.85449-12.1377-19.041-12.1377-33.32129,0-30.22656,22.37207-51.40918,59.02539-51.40918,23.3252,0,40.22363,5.71191,54.74121,19.75488l-20.94434,20.70605c-10.47168-10.23437-23.5625-11.66211-34.749-11.66211-17.6123,0-25.94238,9.75781-25.94238,21.4209,0,4.52148,1.19043,8.80566,4.75977,12.1377,3.333,3.09473,8.33105,5.47461,15.4707,6.42676l20.23047,3.09375c15.46973,2.1416,24.99121,6.18848,32.36816,13.32813,9.04492,8.33008,13.0918,20.46875,13.0918,35.70117C633.19531,1081.71777,606.0625,1100.28223,570.36133,1100.28223Z"/></svg>