<svg id="8cfb3a6c-f8f7-46a0-a535-9da515349ea8" data-name="Calque 1" xmlns="http://www.w3.org/2000/svg" width="1000" height="1206" viewBox="0 0 1000 1206"><title>Resin Code alt 2</title><path d="M880.7341,630.30843,822.96219,530.2458l-74.37944,42.94348,57.77191,100.06214c14.65023,25.37569,4.88018,47.97865-.001,56.43205C801.47351,738.13687,786.95886,758,757.6584,758H550V714.65332l-148.75889,85.886L550,886.42528V843H757.6584c51.377,0,97.38574-26.32251,123.07474-70.816C906.42213,727.68994,906.42213,674.80341,880.7341,630.30843Z"/><path d="M376.92487,184.03227,319.15314,284.09493l74.379,42.94323,57.77215-100.0629c14.65046-25.37508,38.93483-28.1153,48.69584-28.11456,9.76095-.00034,34.04576,2.73889,48.69647,28.11468L652.73233,407.17051l-37.34058,21.47162L764,514.52811v-171.772l-37.03887,21.47137L623.00075,184.03239c-25.689-44.49464-71.66129-71.0582-123.03825-71.05767C448.585,112.9744,402.6129,139.53818,376.92487,184.03227Z"/><path d="M242.34191,843H358V758H242.34191c-29.30069,0-43.81508-19.86326-48.69584-28.31632s-14.65044-30.95566-.00021-56.3306l104.10005-180.246L335,514.52829v-171.772l-148.823,85.886,37.15741,21.47134L119.28244,630.3092c-25.68851,44.4938-25.69667,97.37991-.0078,141.87448C144.96309,816.678,190.96446,843,242.34191,843Z"/><path d="M499.67383,637.39453H466.11523l54.97949-141.61328H476.34961V522.4375h-29.5127V467.93359H554.6543v27.84766Z"/><path d="M247.873,1082.43164c-11.4248,11.4248-25.70508,17.85059-45.22168,17.85059s-34.03516-6.42578-45.46-17.85059c-16.89844-16.89844-17.13574-35.93848-17.13574-68.30762s.2373-51.40918,17.13574-68.30762c11.4248-11.4248,25.94336-17.85059,45.46-17.85059s33.79688,6.42578,45.22168,17.85059c16.89844,16.89844,17.374,35.93848,17.374,68.30762S264.77148,1065.5332,247.873,1082.43164ZM223.834,966.52246c-4.75977-5.47363-12.13867-9.04395-21.18262-9.04395a28.41268,28.41268,0,0,0-21.4209,9.04395c-6.1875,7.14063-8.0918,15.23242-8.0918,47.60156s1.9043,40.22363,8.0918,47.36328a28.57609,28.57609,0,0,0,21.4209,9.28223,27.66368,27.66368,0,0,0,21.18262-9.28223c6.1875-7.13965,8.33008-14.99414,8.33008-47.36328S230.02148,973.66309,223.834,966.52246Z"/><path d="M359.01953,958.90625v139.94824h-33.082V958.90625H281.668v-29.5127H403.28906v29.5127Z"/><path d="M520.623,1098.85449v-70.92578H463.2627v70.92578h-33.083V929.39355h33.083v69.25977H520.623V929.39355h33.082v169.46094Z"/><path d="M593.209,1098.85449V929.39355H704.834v29.5127H626.292v39.74707h66.87988V1028.167H626.292v41.17481h78.542v29.51269Z"/><path d="M827.16406,1098.85449l-33.082-67.59375H770.28125v67.59375h-33.084V929.39355h66.4043c34.51172,0,54.98047,23.5625,54.98047,51.88574,0,23.80078-14.51953,38.55664-30.94141,44.50684l37.84375,73.06836ZM801.459,958.90625H770.28125v44.74609H801.459c14.51953,0,24.03906-9.2832,24.03906-22.373C825.498,968.18848,815.97852,958.90625,801.459,958.90625Z"/></svg>