<svg id="94177d03-cfba-46be-b4c0-1e6c1dc83e51" data-name="Calque 1" xmlns="http://www.w3.org/2000/svg" width="1000" height="1206" viewBox="0 0 1000 1206"><title>Resin Code alt 2</title><path d="M880.7341,630.30843,822.96219,530.2458l-74.37944,42.94348,57.77191,100.06214c14.65023,25.37569,4.88018,47.97865-.001,56.43205C801.47351,738.13687,786.95886,758,757.6584,758H550V714.65332l-148.75889,85.886L550,886.42528V843H757.6584c51.377,0,97.38574-26.32251,123.07474-70.816C906.42213,727.68994,906.42213,674.80341,880.7341,630.30843Z"/><path d="M376.92487,184.03227,319.15314,284.09493l74.379,42.94323,57.77215-100.0629c14.65046-25.37508,38.93483-28.1153,48.69584-28.11456,9.76095-.00034,34.04576,2.73889,48.69647,28.11468L652.73233,407.17051l-37.34058,21.47162L764,514.52811v-171.772l-37.03887,21.47137L623.00075,184.03239c-25.689-44.49464-71.66129-71.0582-123.03825-71.05767C448.585,112.9744,402.6129,139.53818,376.92487,184.03227Z"/><path d="M242.34191,843H358V758H242.34191c-29.30069,0-43.81508-19.86326-48.69584-28.31632s-14.65044-30.95566-.00021-56.3306l104.10005-180.246L335,514.52829v-171.772l-148.823,85.886,37.15741,21.47134L119.28244,630.3092c-25.68851,44.4938-25.69667,97.37991-.0078,141.87448C144.96309,816.678,190.96446,843,242.34191,843Z"/><path d="M498.96094,638.82227c-27.60937,0-53.55273-14.51758-54.02832-49.98047H475.873c.47656,15.23242,10.94922,22.13477,23.08789,22.13477,13.32813,0,22.84766-8.33008,22.84766-23.5625,0-14.043-8.56836-23.32422-23.80078-23.32422h-4.52148V537.19336h4.52148c14.99512,0,21.4209-9.28125,21.4209-21.18164,0-14.28125-9.52051-21.6582-20.70605-21.6582-11.66211,0-20.23047,7.61523-20.94531,20.46875H446.83691c.71387-30.22656,23.3252-48.31641,51.88574-48.31641,29.98828,0,51.64648,19.99219,51.64648,48.55469,0,18.32617-8.33008,28.79883-19.51562,34.748,12.13867,6.42578,21.89648,18.08789,21.89648,38.55664C552.75,622.16211,527.99707,638.82227,498.96094,638.82227Z"/><path d="M511.81348,1098.85449H487.06055L431.12891,929.39355h34.27344L499.4375,1039.8291l34.03418-110.43555h34.51074Z"/></svg>